<?xml version="1.0" encoding="utf-8"?>
<!-- Generator: Adobe Illustrator 26.3.1, SVG Export Plug-In . SVG Version: 6.00 Build 0)  -->
<svg version="1.1" id="Layer_1" xmlns="http://www.w3.org/2000/svg" xmlns:xlink="http://www.w3.org/1999/xlink" x="0px" y="0px"
	 viewBox="0 0 1610.4 2000" style="enable-background:new 0 0 1610.4 2000;" xml:space="preserve">
<style type="text/css">
	.st0{display:none;}
	.st1{display:inline;fill:#F8AF00;}
	.st2{fill:#3FC1C9;}
	.st3{fill-rule:evenodd;clip-rule:evenodd;fill:#3FC1C9;}
	.st4{fill-rule:evenodd;clip-rule:evenodd;fill:#67C1C1;}
	.st5{fill:#0E767C;}
	.st6{fill:#FBC33F;}
	.st7{clip-path:url(#SVGID_00000173848238614291165640000011815809227466769071_);}
	.st8{opacity:0.41;fill:#7D581E;enable-background:new    ;}
	.st9{opacity:0.29;fill:#FDDFB1;enable-background:new    ;}
	.st10{fill:#112233;}
	.st11{fill:#273844;}
	.st12{clip-path:url(#SVGID_00000088103221243990775490000002053720363777502116_);}
	.st13{fill:#F9AF3C;}
	
		.st14{opacity:0.29;clip-path:url(#SVGID_00000060730922373263242240000017072810270556775058_);fill:#171717;enable-background:new    ;}
	.st15{fill:#626262;}
	.st16{display:none;fill:#1A1A1A;}
	
		.st17{opacity:0.29;clip-path:url(#SVGID_00000062176674705291774550000015240262721972333756_);fill:#171717;enable-background:new    ;}
	
		.st18{opacity:0.59;clip-path:url(#SVGID_00000085968892433967539210000014121592573379402884_);fill:#A3BACC;enable-background:new    ;}
	
		.st19{opacity:0.41;clip-path:url(#SVGID_00000144300486500104915390000000739553999369037749_);fill:#7D581E;enable-background:new    ;}
	.st20{font-family:'CormorantInfant-Regular';}
	.st21{font-size:232.3241px;}
</style>
<g>
	<g class="st0">
		<path class="st1" d="M478.9,2427.4v32.9H473v-32.9l-29.5-46.8h5c0.5,0,0.9,0.1,1.3,0.4c0.3,0.2,0.6,0.6,0.9,1l22.8,36.7
			c0.5,0.9,1,1.7,1.4,2.5c0.4,0.8,0.7,1.6,1,2.4c0.3-0.8,0.6-1.6,1-2.4s0.8-1.6,1.4-2.5l22.8-36.7c0.2-0.4,0.5-0.8,0.8-1
			c0.3-0.3,0.8-0.4,1.3-0.4h5.1L478.9,2427.4z"/>
		<path class="st1" d="M587.1,2420.4c0,6.2-0.9,11.8-2.8,16.8c-1.8,5-4.4,9.3-7.8,12.9c-3.3,3.6-7.4,6.3-12,8.2
			c-4.7,1.9-9.8,2.9-15.5,2.9c-5.6,0-10.7-1-15.4-2.9c-4.7-1.9-8.7-4.7-12-8.2c-3.3-3.6-5.9-7.8-7.8-12.9c-1.9-5-2.8-10.6-2.8-16.8
			c0-6.1,0.9-11.7,2.8-16.7s4.5-9.3,7.8-12.9c3.3-3.6,7.4-6.3,12-8.3c4.7-2,9.8-2.9,15.4-2.9c5.7,0,10.9,1,15.5,2.9
			c4.7,1.9,8.7,4.7,12,8.3c3.3,3.6,5.9,7.9,7.8,12.9C586.2,2408.7,587.1,2414.3,587.1,2420.4z M581.1,2420.4c0-5.6-0.8-10.6-2.3-15
			c-1.5-4.4-3.7-8.2-6.5-11.3c-2.8-3.1-6.2-5.4-10.1-7.1c-3.9-1.6-8.3-2.4-13.1-2.4c-4.7,0-9.1,0.8-13,2.4c-3.9,1.6-7.3,4-10.2,7.1
			c-2.8,3.1-5,6.8-6.6,11.3c-1.6,4.4-2.3,9.4-2.3,15c0,5.6,0.8,10.6,2.3,15c1.6,4.4,3.8,8.2,6.6,11.2c2.8,3.1,6.2,5.4,10.2,7.1
			c3.9,1.6,8.3,2.4,13,2.4c4.8,0,9.2-0.8,13.1-2.4c3.9-1.6,7.3-4,10.1-7.1c2.8-3.1,5-6.8,6.5-11.2
			C580.4,2431,581.1,2426,581.1,2420.4z"/>
		<path class="st1" d="M634.2,2456.2c3.8,0,7.3-0.7,10.3-2c3-1.3,5.6-3.2,7.7-5.5s3.7-5.2,4.8-8.4c1.1-3.2,1.7-6.7,1.7-10.4v-49.3
			h5.8v49.3c0,4.4-0.7,8.5-2.1,12.3c-1.4,3.8-3.4,7.1-6,10c-2.6,2.8-5.8,5.1-9.5,6.7c-3.7,1.6-7.9,2.4-12.6,2.4s-8.9-0.8-12.6-2.4
			c-3.7-1.6-6.9-3.8-9.5-6.7c-2.6-2.8-4.6-6.2-6-10c-1.4-3.8-2.1-7.9-2.1-12.3v-49.3h5.8v49.3c0,3.7,0.6,7.2,1.7,10.4
			c1.1,3.2,2.7,6,4.8,8.4c2.1,2.4,4.6,4.2,7.7,5.6C627,2455.5,630.4,2456.2,634.2,2456.2z"/>
		<path class="st1" d="M693.8,2424.3v36.1H688v-79.8h20.3c9.2,0,16.1,1.8,20.6,5.3c4.6,3.6,6.8,8.8,6.8,15.6c0,3-0.5,5.8-1.6,8.4
			c-1.1,2.5-2.6,4.7-4.5,6.6c-2,1.9-4.3,3.5-7.1,4.7c-2.8,1.2-5.9,2-9.4,2.4c0.9,0.6,1.7,1.3,2.4,2.3l27.5,34.5h-5
			c-0.6,0-1.1-0.1-1.5-0.3c-0.4-0.2-0.9-0.6-1.3-1.1l-25.5-32.4c-0.6-0.8-1.3-1.4-2.1-1.7c-0.7-0.3-1.9-0.5-3.4-0.5L693.8,2424.3
			L693.8,2424.3z M693.8,2420h13.9c3.5,0,6.7-0.4,9.5-1.3c2.8-0.8,5.2-2.1,7.1-3.6c1.9-1.6,3.4-3.5,4.4-5.7c1-2.2,1.5-4.7,1.5-7.5
			c0-5.7-1.9-9.9-5.6-12.6c-3.7-2.7-9.1-4.1-16.2-4.1h-14.6V2420z"/>
		<path class="st1" d="M815.6,2390.3c-0.3,0.6-0.8,1-1.5,1c-0.5,0-1.1-0.3-1.9-1c-0.8-0.7-1.8-1.5-3.1-2.3c-1.3-0.8-3-1.6-4.9-2.3
			c-2-0.7-4.4-1.1-7.3-1.1c-2.9,0-5.5,0.4-7.7,1.2c-2.2,0.8-4.1,2-5.5,3.4c-1.5,1.4-2.6,3.1-3.4,5c-0.8,1.9-1.2,3.9-1.2,5.9
			c0,2.7,0.6,4.9,1.7,6.7c1.1,1.8,2.7,3.3,4.6,4.5s4,2.3,6.4,3.1c2.4,0.8,4.9,1.7,7.4,2.5c2.5,0.8,5,1.7,7.4,2.7
			c2.4,1,4.5,2.2,6.4,3.7s3.4,3.3,4.6,5.5c1.1,2.2,1.7,4.9,1.7,8.2c0,3.3-0.6,6.5-1.7,9.4c-1.1,3-2.8,5.5-5,7.7s-4.9,3.9-8,5.2
			c-3.2,1.3-6.8,1.9-10.8,1.9c-5.3,0-9.8-0.9-13.6-2.8c-3.8-1.9-7.1-4.4-10-7.6l1.6-2.5c0.5-0.6,1-0.8,1.6-0.8
			c0.3,0,0.8,0.2,1.3,0.7c0.5,0.5,1.2,1,1.9,1.7c0.8,0.7,1.7,1.4,2.7,2.1c1.1,0.8,2.3,1.5,3.7,2.1s3,1.2,4.8,1.7s3.9,0.7,6.1,0.7
			c3.2,0,6-0.5,8.5-1.4c2.5-1,4.6-2.3,6.3-3.9c1.7-1.7,3-3.6,3.9-5.9c0.9-2.3,1.4-4.7,1.4-7.3c0-2.8-0.6-5.1-1.7-7
			c-1.1-1.8-2.7-3.3-4.6-4.6c-1.9-1.2-4-2.2-6.4-3.1c-2.4-0.8-4.9-1.6-7.4-2.4c-2.5-0.8-5-1.7-7.4-2.7c-2.4-1-4.5-2.2-6.4-3.7
			c-1.9-1.5-3.4-3.4-4.6-5.7c-1.1-2.3-1.7-5.1-1.7-8.5c0-2.7,0.5-5.2,1.5-7.7c1-2.5,2.5-4.7,4.5-6.6c2-1.9,4.4-3.4,7.3-4.6
			s6.2-1.7,9.9-1.7c4.1,0,7.9,0.7,11.2,2c3.3,1.3,6.3,3.3,9,6L815.6,2390.3z"/>
		<path class="st1" d="M840.5,2455.4h37.8v4.9h-43.6v-79.8h5.8V2455.4z"/>
		<path class="st1" d="M958,2420.4c0,6.2-0.9,11.8-2.8,16.8c-1.8,5-4.4,9.3-7.8,12.9c-3.3,3.6-7.4,6.3-12,8.2
			c-4.7,1.9-9.8,2.9-15.5,2.9c-5.6,0-10.7-1-15.4-2.9c-4.7-1.9-8.7-4.7-12-8.2c-3.3-3.6-5.9-7.8-7.8-12.9c-1.9-5-2.8-10.6-2.8-16.8
			c0-6.1,0.9-11.7,2.8-16.7c1.9-5,4.5-9.3,7.8-12.9c3.3-3.6,7.4-6.3,12-8.3c4.7-2,9.8-2.9,15.4-2.9c5.7,0,10.8,1,15.5,2.9
			c4.7,1.9,8.7,4.7,12,8.3c3.3,3.6,5.9,7.9,7.8,12.9C957.1,2408.7,958,2414.3,958,2420.4z M952,2420.4c0-5.6-0.8-10.6-2.3-15
			c-1.5-4.4-3.7-8.2-6.5-11.3c-2.8-3.1-6.2-5.4-10.1-7.1c-3.9-1.6-8.3-2.4-13.1-2.4c-4.7,0-9.1,0.8-13,2.4c-3.9,1.6-7.3,4-10.2,7.1
			c-2.8,3.1-5,6.8-6.6,11.3c-1.6,4.4-2.3,9.4-2.3,15c0,5.6,0.8,10.6,2.3,15c1.6,4.4,3.8,8.2,6.6,11.2c2.8,3.1,6.2,5.4,10.2,7.1
			c3.9,1.6,8.3,2.4,13,2.4c4.8,0,9.2-0.8,13.1-2.4c3.9-1.6,7.3-4,10.1-7.1c2.8-3.1,5-6.8,6.5-11.2C951.2,2431,952,2426,952,2420.4z"
			/>
		<path class="st1" d="M1009.9,2456.5c2.7,0,5.2-0.1,7.5-0.4s4.3-0.7,6.3-1.3c1.9-0.6,3.8-1.2,5.5-2.1c1.7-0.8,3.5-1.7,5.3-2.7
			v-21.5h-15.3c-0.4,0-0.8-0.1-1-0.4c-0.3-0.3-0.4-0.6-0.4-0.9v-3.2h22v28.4c-2,1.4-4.1,2.6-6.2,3.7c-2.1,1.1-4.4,2-6.9,2.7
			s-5.1,1.3-7.9,1.7c-2.8,0.4-5.9,0.6-9.3,0.6c-5.8,0-11-1-15.8-2.9c-4.8-1.9-8.8-4.7-12.2-8.2c-3.4-3.6-6-7.8-7.9-12.9
			c-1.9-5-2.8-10.6-2.8-16.8s0.9-11.8,2.8-16.8c1.9-5,4.6-9.3,8-12.9c3.5-3.6,7.7-6.3,12.6-8.2c4.9-1.9,10.5-2.9,16.6-2.9
			c3,0,5.8,0.2,8.4,0.6c2.6,0.4,5,1,7.2,1.8c2.2,0.8,4.3,1.8,6.2,3c1.9,1.2,3.8,2.5,5.5,4.1l-1.5,2.5c-0.3,0.6-0.8,0.8-1.4,0.8
			c-0.3,0-0.7-0.1-1-0.2c-0.6-0.2-1.4-0.8-2.5-1.6c-1.1-0.8-2.5-1.7-4.3-2.6c-1.8-0.9-4.1-1.7-6.8-2.4c-2.7-0.7-6.1-1.1-10-1.1
			c-5.2,0-9.9,0.8-14,2.5c-4.2,1.7-7.7,4-10.7,7.1c-3,3.1-5.2,6.8-6.8,11.3c-1.6,4.4-2.4,9.4-2.4,14.9c0,5.6,0.8,10.7,2.4,15.2
			s3.9,8.3,6.8,11.4c2.9,3.1,6.4,5.5,10.5,7.1C1000.5,2455.7,1005,2456.5,1009.9,2456.5z"/>
		<path class="st1" d="M1118.9,2460.3h-4.5c-0.5,0-1-0.1-1.3-0.4c-0.3-0.3-0.6-0.6-0.8-1.1l-9.4-23.2h-39.2l-9.4,23.2
			c-0.2,0.4-0.4,0.8-0.8,1.1c-0.4,0.3-0.8,0.5-1.4,0.5h-4.4l32.6-79.8h5.8L1118.9,2460.3z M1065.6,2431.3h35.8L1085,2391
			c-0.3-0.6-0.5-1.4-0.8-2.2c-0.3-0.8-0.5-1.7-0.8-2.6c-0.3,0.9-0.5,1.8-0.8,2.6c-0.3,0.8-0.5,1.5-0.8,2.2L1065.6,2431.3z"/>
		<path class="st1" d="M1134.5,2380.8c0.3,0.1,0.6,0.4,1,0.9l51.6,69.1c-0.1-1.1-0.2-2.2-0.2-3.3v-66.9h5.1v79.8h-2.8
			c-0.9,0-1.6-0.4-2.1-1.1l-51.9-69.2c0.1,1.1,0.2,2.2,0.2,3.2v67.2h-5v-79.8h2.8C1133.8,2380.6,1134.2,2380.6,1134.5,2380.8z"/>
		<path class="st1" d="M1296.8,2460.3h-5.8v-38.2H1241v38.2h-5.8v-79.8h5.8v37.2h49.9v-37.2h5.8V2460.3z"/>
		<path class="st1" d="M1367.1,2380.6v4.8h-42v32.3h35v4.7h-35v33.3h42v4.8h-47.8v-79.8H1367.1z"/>
		<path class="st1" d="M1392.3,2424.3v36.1h-5.8v-79.8h20.3c9.2,0,16.1,1.8,20.6,5.3c4.6,3.6,6.8,8.8,6.8,15.6c0,3-0.5,5.8-1.6,8.4
			c-1.1,2.5-2.6,4.7-4.5,6.6c-2,1.9-4.3,3.5-7.1,4.7c-2.8,1.2-5.9,2-9.4,2.4c0.9,0.6,1.7,1.3,2.4,2.3l27.5,34.5h-5
			c-0.6,0-1.1-0.1-1.5-0.3c-0.4-0.2-0.9-0.6-1.3-1.1l-25.5-32.4c-0.6-0.8-1.3-1.4-2.1-1.7c-0.7-0.3-1.9-0.5-3.4-0.5L1392.3,2424.3
			L1392.3,2424.3z M1392.3,2420h13.9c3.5,0,6.7-0.4,9.5-1.3c2.8-0.8,5.2-2.1,7.1-3.6c1.9-1.6,3.4-3.5,4.4-5.7c1-2.2,1.5-4.7,1.5-7.5
			c0-5.7-1.9-9.9-5.6-12.6c-3.7-2.7-9.1-4.1-16.2-4.1h-14.6L1392.3,2420L1392.3,2420z"/>
		<path class="st1" d="M1502.7,2380.6v4.8h-42v32.3h35v4.7h-35v33.3h42v4.8h-47.8v-79.8H1502.7z"/>
	</g>
	<path class="st2" d="M983.5,403.1h-0.4c-319.4,1.8-578.6,283.7-577.9,628.3c0.3,144.7,47.1,285.5,131.8,396.4
		c43.6,57.1,78,109.1,91.2,214.7c28.1,224.8,150.7,344.9,354.6,347.3h0.4h0.4c203.9-2.4,326.5-122.4,354.7-347.3
		c13.2-105.6,47.6-157.6,91.2-214.7c84.7-110.9,131.5-251.6,131.8-396.4C1562.1,686.8,1302.9,404.9,983.5,403.1z M1373.2,1377.7
		c-3.6,4.8-7.2,9.5-10.8,14.3c1.8-6.2,2.8-13,2.8-20.1v-12.4c0-14.4-1.6-28.2-4.4-41.4c-10.9-59.2,14.8-102.2,25.1-116.5
		c0.9-1.2,4-5.4,4-5.4c24-33.1,38.4-74.5,38.4-119.7c0-29.3-5.9-57.5-17.5-83.8c-7.4-16.7-25.9-23.8-41.4-15.8
		c-15.5,8-22.1,28-14.7,44.8c7.6,17.2,11.5,35.6,11.5,54.8c0,70.2-53,127.4-118.1,127.4c0,0-1.4,0-3.1,0
		c-21.8,0.1-54.4-8.2-81.9-2.4c-9.8,35.1-10.8,70.5-2.8,105.7c4.9,21.7,8,44.5,9.7,59.9c9.5,86.9-16.4,124.9-40.6,141.5
		c-0.8,0.6-1.7,1.2-2.6,1.7l-97.1,58.5c-14,8.5-30.1,12.9-46.3,12.9c-16.2,0-32.2-4.5-46.3-12.9l-95.5-57.5l-1.9-1.2
		c-0.3-0.2-0.6-0.4-0.9-0.6c-24.7-16.1-51.8-53.8-42-142.4c1.7-15.3,4.7-38.2,9.6-59.9c8-35.2,7.1-70.6-2.7-105.7
		c-27.5-5.8-60.1,2.5-81.9,2.4c-1.7,0-3.1,0-3.1,0c-65.1,0-118-57.1-118-127.4c0-19.2,3.8-37.6,11.5-54.8
		c7.4-16.7,0.8-36.7-14.7-44.8c-15.5-8-34.1-0.9-41.4,15.8c-11.6,26.3-17.5,54.5-17.5,83.8c0,45.2,14.5,86.6,38.5,119.7
		c0,0,0.5,0.8,1.2,1.8c0.9,1.2,1.8,2.4,2.7,3.6c10.3,14.3,36,57.3,25.1,116.5c-2.8,13.2-4.4,27.1-4.4,41.4v12.4
		c0,7.1,1,13.9,2.8,20.1c-3.6-4.8-7.2-9.6-10.9-14.4c-74-96.9-114.9-219.9-115.1-346.4C477.7,730,704.2,483.7,983.3,482
		c279.1,1.7,505.6,248.1,505,549.3C1488.1,1157.8,1447.2,1280.8,1373.2,1377.7z"/>
	<path class="st3" d="M713.7,1177.1c28.4,0,51.5-24.9,51.5-55.6c0-30.7-23.1-55.6-51.5-55.6c-28.5,0-51.5,24.9-51.5,55.6
		C662.2,1152.2,685.2,1177.1,713.7,1177.1z"/>
	<path class="st4" d="M713.7,1065.9c-5.2,0-10.1,1.1-14.8,2.6c23.7,3.1,43.3,24.7,46,53c2.2,22.4-7,42.8-22,54.6
		c24.1-4.7,42.4-27.3,42.4-54.6C765.2,1090.8,742.1,1065.9,713.7,1065.9z"/>
	<path class="st3" d="M1253,1177.1c-28.5,0-51.5-24.9-51.5-55.6c0-30.7,23-55.6,51.5-55.6c28.4,0,51.5,24.9,51.5,55.6
		C1304.5,1152.2,1281.4,1177.1,1253,1177.1z"/>
	<path class="st4" d="M1253,1065.9c5.2,0,10.1,1.1,14.8,2.6c-23.7,3.1-43.3,24.7-46,53c-2.1,22.4,7,42.8,22,54.6
		c-24.1-4.7-42.4-27.3-42.4-54.6C1201.5,1090.8,1224.5,1065.9,1253,1065.9z"/>
	<path class="st3" d="M982,1085.9c37.6,0,68.1-30.2,68.1-67.6c0-37.3-30.5-67.6-68.1-67.6c-37.6,0-68.1,30.3-68.1,67.6
		C913.9,1055.7,944.4,1085.9,982,1085.9z"/>
	<path class="st2" d="M1177.5,1120.9c1.1-1.6,2.3-3.2,3.4-4.8c0.1-0.2,0.2-0.3,0.2-0.3h0c24.7-36.2,39.2-79.4,39.2-125.9
		c0-34.7-7.8-68.1-23.2-99.2c-9.8-19.8-34.3-28.2-54.8-18.7c-20.5,9.5-29.1,33.2-19.4,53c10.1,20.3,15.2,42.2,15.2,64.9
		c0,83.1-70,150.7-156,150.7c-86,0-156-67.6-156-150.7c0-22.8,5.1-44.6,15.2-64.9c9.8-19.8,1.1-43.5-19.4-53
		c-20.5-9.5-45-1-54.8,18.7c-15.4,31.1-23.2,64.5-23.2,99.2c0,50.3,17,96.9,45.5,134.8c6.9,9.9,17.9,26.1,24.3,37.8
		c20.9,42,34.9,96.4,19.5,159.4c-4.2,17.3-7.2,36.5-9.2,53c-6.8,58,5.9,89.9,27.2,102.6h0l0.4,0.2c0.4,0.3,0.8,0.5,1.3,0.7
		l98.4,54.9c9.4,5.2,20.1,8,31,8c10.9,0,21.6-2.8,31-8l100-55.8h-0.1c21.4-12.7,34.1-44.6,27.2-102.6c-2-16.5-5-35.8-9.2-53
		c-14.6-59.5-2.9-111.5,16.1-152.4l0,0v0c0.6-1.4,1.3-2.8,2-4.2C1155.7,1152.1,1170.6,1130.6,1177.5,1120.9z"/>
	<path class="st5" d="M813.5,1138.5c-6.3-11.6-17.3-27.9-24.3-37.8c-26.3-35-42.7-77.2-45.2-123c-0.2,4-0.3,8.1-0.3,12.3
		c0,50.3,17,96.9,45.5,134.8c6.9,9.9,17.9,26.1,24.3,37.8c13.2,26.5,23.6,58,25.7,93.5C841.6,1210.6,829.6,1170.8,813.5,1138.5z"/>
	<path class="st5" d="M1219.7,976.5c-2,42.4-16,81.9-38.7,115.3h0c0,0-0.1,0.1-0.2,0.3c-1.1,1.6-2.2,3.2-3.4,4.8
		c-6.9,9.7-21.7,31.2-28.5,44.4c-0.7,1.4-1.3,2.8-2,4.2v0c-14.4,31.1-24.6,68.6-22.3,111c1.8-32.6,10.7-61.8,22.3-86.9v0
		c0.6-1.4,1.3-2.8,2-4.2c6.8-13.2,21.6-34.7,28.5-44.4c1.1-1.6,2.3-3.2,3.4-4.8c0.1-0.2,0.2-0.3,0.2-0.3h0
		c24.7-36.2,39.2-79.4,39.2-125.9C1220.2,985.4,1220,980.9,1219.7,976.5z"/>
	<path class="st5" d="M803.6,1201.5c-12.3-2.6-25.5-2.4-38.4-1.4c0,0,32.9,37.1,42.7,99.4C814.2,1266.9,812.7,1234,803.6,1201.5z"/>
	<path class="st5" d="M1163.1,1201.6c-8.5,30.4-10.3,61-5.5,91.5c8.2-57.7,34.8-92.6,35.4-93.3
		C1182.8,1199.3,1172.6,1199.6,1163.1,1201.6z"/>
</g>
<g>
	<g>
		<g>
			<path id="SVGID_1_" class="st6" d="M337.2,932.2c0,0-5.5,70.9-47.4,90.7c-2.7-2.3,0.2-8.7-2.5-11.1c-0.7-0.6-1.6-0.8-2.5-1
				c-2.8-0.7-5.6-1.4-8.3-2.1c-0.8-0.2-1.7-0.4-2.3-1c-0.5-0.5-0.8-1.2-1-1.8c-0.8-2.4-1.4-4.9-1.5-7.4c-0.1-0.9-0.1-1.8-0.6-2.6
				c-0.7-1.1-2.2-1.4-3.5-1.1c-1.3,0.2-2.4,0.9-3.6,1.5c-1.4,0.6-3,1-4.5,1.1c-1,0.1-2.2,0-2.9-0.6c-0.4-0.3-0.6-0.8-1-1.1
				c-1.6-1.6-4.8-1.3-5.7-3.4c-0.9-1.9-1.7-4.9-1.2-6.9c0.3-1.2,0.9-2.3,1.6-3.3c10.2-16.1,23.5-30.1,38.1-42.4
				c10.1-8.6,21.3-16.6,34.1-19.9c2.8,1.7,5.8,2.7,8.7,4.4c1.4,0.8,2.8,1.7,3.4,3.2c0.2,0.6,0.3,1.4,0.8,1.8
				c0.2,0.2,0.5,0.3,0.8,0.5C336.2,929.8,337.5,932,337.2,932.2z"/>
		</g>
		<g>
			<defs>
				<path id="SVGID_00000070820263911846912860000006935002694960790174_" d="M337.2,932.2c0,0-5.5,70.9-47.4,90.7
					c-2.7-2.3,0.2-8.7-2.5-11.1c-0.7-0.6-1.6-0.8-2.5-1c-2.8-0.7-5.6-1.4-8.3-2.1c-0.8-0.2-1.7-0.4-2.3-1c-0.5-0.5-0.8-1.2-1-1.8
					c-0.8-2.4-1.4-4.9-1.5-7.4c-0.1-0.9-0.1-1.8-0.6-2.6c-0.7-1.1-2.2-1.4-3.5-1.1c-1.3,0.2-2.4,0.9-3.6,1.5c-1.4,0.6-3,1-4.5,1.1
					c-1,0.1-2.2,0-2.9-0.6c-0.4-0.3-0.6-0.8-1-1.1c-1.6-1.6-4.8-1.3-5.7-3.4c-0.9-1.9-1.7-4.9-1.2-6.9c0.3-1.2,0.9-2.3,1.6-3.3
					c10.2-16.1,23.5-30.1,38.1-42.4c10.1-8.6,21.3-16.6,34.1-19.9c2.8,1.7,5.8,2.7,8.7,4.4c1.4,0.8,2.8,1.7,3.4,3.2
					c0.2,0.6,0.3,1.4,0.8,1.8c0.2,0.2,0.5,0.3,0.8,0.5C336.2,929.8,337.5,932,337.2,932.2z"/>
			</defs>
			<clipPath id="SVGID_00000137127478142950905880000000151727080357164458_">
				<use xlink:href="#SVGID_00000070820263911846912860000006935002694960790174_"  style="overflow:visible;"/>
			</clipPath>
			<g style="clip-path:url(#SVGID_00000137127478142950905880000000151727080357164458_);">
				<path class="st8" d="M267.5,1003.5c0,0,45.2-59.4,54-77.4c8.9-18-73.2,85.8-73.2,85.8L267.5,1003.5z"/>
				<path class="st8" d="M329.3,932.2c0,0-21.8,80.7-48.7,86.6l-5.9-2.1c0,0,49.6-63.5,51.2-87.9
					C327.5,904.5,329.3,932.2,329.3,932.2z"/>
				<path class="st9" d="M270.5,1011.6c0,0,49.9-60.5,56-84.8c0,0-57.5,84.5-61.3,88.8C261.6,1020,270.5,1011.6,270.5,1011.6z"/>
				<path class="st9" d="M314.1,926.1c0,0-67.8,56.4-70.7,70.6c-2.9,14.2,72.3-70,72.3-70L314.1,926.1z"/>
				<path class="st9" d="M310.9,926.2c0,0-73.2,58.6-77.7,69.2c0,0,53.1-66.7,77.6-74.4C335.4,913.4,310.9,926.2,310.9,926.2z"/>
				<path class="st9" d="M331.7,936.4c0,0-4.8,71.8-46.2,86c-41.4,14.2,42.9,9.4,42.9,9.4S362.1,920.2,331.7,936.4z"/>
			</g>
		</g>
	</g>
	<path class="st10" d="M31.9,833.6l237.6-330.7l30-41.8l136.3-189.6c0.8-1.1,1.9-2,3.2-2.6L1053.5,7c3.2-1.4,6.9-0.4,9,2.3
		s2.3,6.5,0.2,9.3L722.1,493.5c-0.6,0.8-1.3,1.5-2.1,2c-0.2,0.1-0.4,0.2-0.6,0.4L41.6,844.9c-3.2,1.6-7,0.9-9.3-1.8
		C30,840.4,29.8,836.5,31.9,833.6z"/>
	<path class="st11" d="M31.9,833.6l237.6-330.7l30-41.8l136.3-189.6c0.8-1.1,1.9-2,3.2-2.6L1053.5,7c3.2-1.4,6.9-0.4,9,2.3
		c2.1,2.6,2.2,6.1,0.5,8.9L452.7,278.2c-1.3,0.5-2.4,1.4-3.2,2.6L313.2,470.5l-30,41.7L45.7,842.9l-4,2.1c-3.2,1.6-7,0.9-9.3-1.8
		C30,840.4,29.8,836.5,31.9,833.6z"/>
	<path class="st6" d="M269.5,502.9c-7.9,17.9-14,48.6-5,101.3c11.2,66,56.3,157.4,70.6,222.2c13.4,60.5,2.5,94.9,2.5,94.9
		s-22.8,11.5-19.8-8.7c9-60.8-17.6-135.4-36.1-172.5c-40.9-82-68.6-217.1-43.5-251.9c27.9-38.8,61.2-27.1,61.2-27.1L269.5,502.9z"/>
	<g>
		<g>
			<defs>
				<path id="SVGID_00000073722873807354952870000017312228433188477109_" d="M269.8,501.8c-7.9,17.9-14.3,49.6-5.3,102.4
					c11.2,66,56.3,157.4,70.6,222.2c13.4,60.5,2.5,94.9,2.5,94.9s-22.8,11.5-19.8-8.7c9-60.8-17.6-135.4-36.1-172.5
					c-40.9-82-68.6-217.1-43.5-251.9c27.9-38.8,61.2-27.7,61.2-27.7L269.8,501.8z"/>
			</defs>
			<clipPath id="SVGID_00000017515853944629781150000009672978833274424202_">
				<use xlink:href="#SVGID_00000073722873807354952870000017312228433188477109_"  style="overflow:visible;"/>
			</clipPath>
			<g style="clip-path:url(#SVGID_00000017515853944629781150000009672978833274424202_);">
				<path class="st13" d="M351.3,907.4c0,0-38.1-49.4-45-54c-6.9-4.7-2-34.4-2-34.4s48.7,53.7,52.6,67.9
					C361,901.2,351.3,907.4,351.3,907.4z"/>
				<path class="st13" d="M340.7,822.2c0,0-33.4-33-47.4-30.5c-14,2.5-20.3-49.8-20.3-49.8s48.7,15.4,63.1,41.8
					C350.5,810.1,340.7,822.2,340.7,822.2z"/>
				<path class="st13" d="M321,731.8c0,0-59.9-25.7-67.2-39.2c-7.3-13.4-13.5-48.3-13.5-48.3s57.6,54.4,64.2,52.7
					C311.2,695.4,321,731.8,321,731.8z"/>
				<path class="st13" d="M282,639.6c0,0-52.8-51-63.3-69.5c-10.6-18.5-0.8-39.6-0.8-39.6s52.9,61.3,65,54.9
					C294.9,578.9,282,639.6,282,639.6z"/>
				<path class="st13" d="M273.6,538.7c0,0-47.6-34.9-54.3-58.5c-6.7-23.6,43.4-25.2,43.4-25.2s-19.3,32.5,7.9,55.8
					C297.9,534.2,273.6,538.7,273.6,538.7z"/>
			</g>
		</g>
	</g>
	
		<ellipse transform="matrix(0.8418 -0.5398 0.5398 0.8418 -446.3482 321.7136)" class="st13" cx="325.7" cy="922.3" rx="18.8" ry="17.9"/>
	<g>
		<g>
			<defs>
				<path id="SVGID_00000067208119549422174610000007165306152993823389_" d="M31.9,833.6l237.6-330.7l30-41.8l136.3-189.6
					c0.8-1.1,1.9-2,3.2-2.6L1053.5,7c3.2-1.4,6.9-0.4,9,2.3s2.3,6.5,0.2,9.3L722.1,493.5c-0.6,0.8-1.3,1.5-2.1,2
					c-0.2,0.1-0.4,0.2-0.6,0.4L41.6,844.9c-3.2,1.6-7,0.9-9.3-1.8C30,840.4,29.8,836.5,31.9,833.6z"/>
			</defs>
			<clipPath id="SVGID_00000016068770927965494500000000026537240113297049_">
				<use xlink:href="#SVGID_00000067208119549422174610000007165306152993823389_"  style="overflow:visible;"/>
			</clipPath>
			
				<path style="opacity:0.29;clip-path:url(#SVGID_00000016068770927965494500000000026537240113297049_);fill:#171717;enable-background:new    ;" d="
				M394.4,197.7L571,473.1l190.3,321L-145.3,948C-145.4,948-10,140.9,394.4,197.7z"/>
		</g>
	</g>
	<path class="st10" d="M546,381.1c112.4-84.4,220.2-142.9,280.9-156.2l40.3,50.3l103.3,129.2c-14.2-18.9-142.9,53.7-287.4,162.2
		C544.5,670.5,441.8,769.6,446,794.4l-0.7,0.5L342,661.9l-31.3-40.3C331.3,568.9,423,473.4,546,381.1z"/>
	<path class="st15" d="M675.3,558.5c130-97.5,251.5-167.5,285-166.8l10.2,12.7c-14.2-18.9-142.9,53.7-287.4,162.2
		C544.5,670.5,441.8,769.6,446,794.4l-0.7,0.5l-7.8-10.1C447.1,752,546.3,655.3,675.3,558.5z"/>
	<path class="st16" d="M683,566.5c144.5-108.5,273.2-181.1,287.4-162.2S879,526.6,734.5,635S461.2,816.1,447,797.2
		c-0.6-0.8-0.9-1.8-1.1-2.8C441.8,769.6,544.5,670.5,683,566.5z"/>
	<path class="st10" d="M546,381.1c112.4-84.4,220.2-142.9,280.9-156.2l40.3,50.3l103.3,129.2c-14.2-18.9-142.9,53.7-287.4,162.2
		C544.5,670.5,441.8,769.6,446,794.4l-0.7,0.5L342,661.9l-31.3-40.3C331.3,568.9,423,473.4,546,381.1z"/>
	<path class="st16" d="M683,566.5c144.5-108.5,273.2-181.1,287.4-162.2S879,526.6,734.5,635S461.2,816.1,447,797.2
		c-0.6-0.8-0.9-1.8-1.1-2.8C441.8,769.6,544.5,670.5,683,566.5z"/>
	<g>
		<g>
			<defs>
				<path id="SVGID_00000175312313540803009660000010774640238963591315_" d="M546,381.1c112.4-84.4,220.2-142.9,280.9-156.2
					l40.3,50.3l103.3,129.2c-14.2-18.9-142.9,53.7-287.4,162.2C544.5,670.5,441.8,769.6,446,794.4l-0.7,0.5L342,661.9l-31.3-40.3
					C331.3,568.9,423,473.4,546,381.1z"/>
			</defs>
			<clipPath id="SVGID_00000080171562304680701790000009004007959338055090_">
				<use xlink:href="#SVGID_00000175312313540803009660000010774640238963591315_"  style="overflow:visible;"/>
			</clipPath>
			
				<path style="opacity:0.29;clip-path:url(#SVGID_00000080171562304680701790000009004007959338055090_);fill:#171717;enable-background:new    ;" d="
				M541.1,364c0,0,47.9,214.1,126.1,257.3c78.2,43.1-243.9,227.7-243.9,227.7L261.4,647C261.4,647,427.2,376.2,541.1,364z"/>
		</g>
	</g>
	<g>
		<g>
			<defs>
				<path id="SVGID_00000018217954899978861580000015650206054854926728_" d="M546,381.1c112.4-84.4,220.2-142.9,280.9-156.2
					l40.3,50.3l103.3,129.2c-14.2-18.9-142.9,53.7-287.4,162.2C544.5,670.5,441.8,769.6,446,794.4l-0.7,0.5L342,661.9l-31.3-40.3
					C331.3,568.9,423,473.4,546,381.1z"/>
			</defs>
			<clipPath id="SVGID_00000125599631080355758830000007655676418110796699_">
				<use xlink:href="#SVGID_00000018217954899978861580000015650206054854926728_"  style="overflow:visible;"/>
			</clipPath>
			
				<path style="opacity:0.59;clip-path:url(#SVGID_00000125599631080355758830000007655676418110796699_);fill:#A3BACC;enable-background:new    ;" d="
				M698.6,238.4c78.8,15.1,213,186,216.9,222.4c3.9,36.4-79.3,56.1-79.3,56.1S697.3,285,626.6,272.9c-33.5-5.7,33.2-42.5,33.2-42.5
				S687.1,236.2,698.6,238.4z"/>
		</g>
	</g>
	<g>
		<g>
			<defs>
				
					<ellipse id="SVGID_00000008147625788361812160000000822295225486631830_" transform="matrix(0.8418 -0.5398 0.5398 0.8418 -446.3482 321.7136)" cx="325.7" cy="922.3" rx="18.8" ry="17.9"/>
			</defs>
			<clipPath id="SVGID_00000035500188546097901130000000825690364622093212_">
				<use xlink:href="#SVGID_00000008147625788361812160000000822295225486631830_"  style="overflow:visible;"/>
			</clipPath>
			
				<path style="opacity:0.41;clip-path:url(#SVGID_00000035500188546097901130000000825690364622093212_);fill:#7D581E;enable-background:new    ;" d="
				M332,899c0,0,15.5,36.4-5.7,43.2c-21.2,6.8-5.3-40.6-2.8-42.3c2.5-1.6-28.3,4.9-28.3,4.9l-8,44.6l52.5,25.3l44.3-44
				C384.1,930.7,337.2,887.3,332,899z"/>
		</g>
	</g>
	
		<ellipse transform="matrix(0.8418 -0.5398 0.5398 0.8418 -443.1846 319.5905)" class="st9" cx="323.6" cy="915.9" rx="11.6" ry="9.9"/>
</g>
<text transform="matrix(1 0 0 1 808.2998 1745.2178)" class="st5 st20 st21">CC</text>
<g>
	<path class="st5" d="M776.9,1783.4c2.5,0.5,4.4,1.1,5.9,2c0.5,0.2,0.7,0.4,0.9,0.6c0.1,0.2,0.2,0.6,0.3,1.2l0.8,8.4
		c0,0.2-0.1,0.2-0.4,0.3c-0.2,0-0.4,0-0.5-0.2c-1.1-3.9-3.1-6.7-6.1-8.5c-3-1.8-6.7-2.7-11.1-2.7c-3.8,0-7.1,0.8-10,2.5
		c-2.9,1.7-5.1,4-6.6,7.1c-1.6,3.1-2.3,6.6-2.3,10.6c0,4.7,1,9,2.9,12.9s4.5,7.1,7.8,9.4c3.3,2.3,6.8,3.5,10.6,3.5
		c3.6,0,6.7-1,9.4-3c2.7-2,4.7-5,6.1-9.1c0-0.2,0.1-0.2,0.3-0.2c0.2,0,0.3,0,0.4,0.1c0.1,0.1,0.2,0.1,0.2,0.2l-1.1,8.5
		c-0.1,0.6-0.2,1-0.3,1.2c-0.1,0.2-0.4,0.4-0.9,0.6c-4.5,1.9-9.3,2.9-14.3,2.9c-6,0-11-1.2-15.1-3.6c-4-2.4-7-5.5-8.9-9.3
		c-1.9-3.8-2.9-7.7-2.9-11.9c0-4.6,1.3-8.7,3.8-12.4c2.6-3.7,5.9-6.5,10.1-8.5c4.2-2,8.7-3,13.5-3
		C772,1782.7,774.5,1782.9,776.9,1783.4z"/>
	<path class="st5" d="M798.4,1829.3c-2.2-1.4-3.9-3.4-5.2-5.8s-1.8-5.1-1.8-7.9c0-3.3,0.8-6,2.4-8.3c1.6-2.3,3.6-4,6.1-5.1
		c2.5-1.1,5-1.7,7.6-1.7c3,0,5.5,0.7,7.7,2.2c2.2,1.4,3.9,3.4,5.1,5.8c1.2,2.4,1.8,4.9,1.8,7.6c0,3.1-0.7,5.8-2.2,8.2
		c-1.4,2.3-3.4,4.1-5.8,5.4c-2.4,1.3-5.1,1.9-7.9,1.9C803.2,1831.5,800.6,1830.7,798.4,1829.3z M814.7,1827.1c1.5-2,2.3-5,2.3-9
		c0-3.1-0.5-5.9-1.5-8.3c-1-2.5-2.4-4.4-4.3-5.8c-1.8-1.4-3.9-2.1-6.2-2.1c-2.7,0-4.8,1-6.3,2.9c-1.5,2-2.2,4.8-2.2,8.4
		c0,3.1,0.5,5.9,1.5,8.4c1,2.6,2.4,4.6,4.2,6.1c1.8,1.5,3.8,2.3,6.1,2.3C811,1830,813.2,1829.1,814.7,1827.1z"/>
	<path class="st5" d="M880.7,1830c0,0.3-0.1,0.5-0.2,0.5c-1.1,0-2.1,0-2.8-0.1l-4.1-0.1l-4.1,0.1c-0.7,0.1-1.6,0.1-2.8,0.1
		c-0.2,0-0.2-0.2-0.2-0.5s0.1-0.5,0.2-0.5c1.4,0,2.4-0.1,3-0.4c0.7-0.3,1.1-0.8,1.4-1.5c0.2-0.7,0.4-1.8,0.4-3.3v-12
		c0-3-0.5-5.2-1.6-6.6c-1.1-1.4-2.7-2.1-4.9-2.1c-1.5,0-3,0.4-4.6,1.2s-2.9,2-4.3,3.5c0.1,0.2,0.1,0.7,0.1,1.2v14.7
		c0,1.5,0.1,2.6,0.4,3.3c0.2,0.7,0.7,1.2,1.4,1.5c0.7,0.3,1.7,0.4,3,0.4c0.2,0,0.2,0.2,0.2,0.5c0,0.3-0.1,0.5-0.2,0.5
		c-1.1,0-2.1,0-2.8-0.1l-4.1-0.1l-4.1,0.1c-0.7,0.1-1.6,0.1-2.7,0.1c-0.2,0-0.2-0.2-0.2-0.5c0-0.3,0.1-0.5,0.2-0.5
		c1.4,0,2.4-0.1,3-0.4c0.7-0.3,1.1-0.8,1.3-1.5c0.2-0.7,0.3-1.8,0.3-3.3v-12c0-3-0.5-5.2-1.6-6.6c-1.1-1.4-2.7-2.1-4.8-2.1
		c-1.5,0-3,0.4-4.5,1.2s-2.9,1.9-4.1,3.4v16.1c0,1.5,0.1,2.6,0.3,3.3s0.7,1.2,1.3,1.5c0.7,0.3,1.7,0.4,3,0.4c0.2,0,0.2,0.2,0.2,0.5
		c0,0.3-0.1,0.5-0.2,0.5c-1.1,0-2,0-2.7-0.1l-4.1-0.1l-4.1,0.1c-0.7,0.1-1.6,0.1-2.7,0.1c-0.2,0-0.2-0.2-0.2-0.5
		c0-0.3,0.1-0.5,0.2-0.5c1.4,0,2.4-0.1,3-0.4c0.7-0.3,1.1-0.8,1.3-1.5c0.2-0.7,0.3-1.8,0.3-3.3v-14.9c0-1.7-0.2-2.9-0.6-3.7
		c-0.4-0.8-1.1-1.1-2-1.1c-0.8,0-2.2,0.4-4.1,1.1h-0.2c-0.2,0-0.3-0.1-0.4-0.3c-0.1-0.2,0-0.4,0.2-0.5l8.7-4.1
		c0.1-0.1,0.2-0.1,0.5-0.1c0.5,0,0.9,0.6,1.4,1.7c0.5,1.1,0.8,2.6,0.8,4.4v0.1c1.8-2.2,3.6-3.8,5.4-4.8c1.8-1,3.7-1.5,5.6-1.5
		c2.3,0,4.1,0.5,5.5,1.7c1.4,1.1,2.3,2.8,2.6,5c1.9-2.3,3.7-3.9,5.6-5c1.9-1.1,3.8-1.6,5.8-1.6c2.7,0,4.7,0.8,6.1,2.3
		c1.4,1.5,2.1,3.8,2.1,6.8v14.6c0,1.5,0.1,2.6,0.3,3.3s0.7,1.2,1.3,1.5c0.7,0.3,1.7,0.4,3,0.4C880.7,1829.6,880.7,1829.7,880.7,1830
		z"/>
	<path class="st5" d="M911.8,1802.1c1.7,1.1,3.2,2.7,4.2,4.8c1.1,2.1,1.6,4.6,1.6,7.4c0,3.8-0.8,6.9-2.6,9.5
		c-1.7,2.6-3.8,4.5-6.3,5.8c-2.5,1.3-4.9,1.9-7.3,1.9c-1.6,0-2.9-0.2-4.2-0.5c-1.2-0.3-2.5-0.8-3.8-1.5v15.6c0,1.5,0.2,2.6,0.6,3.3
		c0.4,0.7,1.1,1.2,2.1,1.5c1.1,0.3,2.7,0.4,4.8,0.4c0.1,0,0.2,0.2,0.2,0.5s-0.1,0.5-0.2,0.5c-1.7,0-3.1,0-4.1-0.1l-5.5-0.1l-4.1,0.1
		c-0.7,0.1-1.6,0.1-2.8,0.1c-0.2,0-0.2-0.2-0.2-0.5s0.1-0.5,0.2-0.5c1.4,0,2.4-0.1,3-0.4c0.7-0.3,1.1-0.8,1.4-1.5
		c0.2-0.7,0.4-1.8,0.4-3.3v-35.3c0-1.8-0.2-3.1-0.6-3.9c-0.4-0.8-1.1-1.2-2.1-1.2c-1.1,0-2.4,0.4-4,1.1l-0.2,0.1
		c-0.2,0-0.3-0.1-0.4-0.4c-0.1-0.2,0-0.4,0.1-0.5l8.3-4c0.1-0.1,0.3-0.1,0.5-0.1c0.7,0,1.3,0.5,1.7,1.6c0.5,1.1,0.7,2.6,0.8,4.5
		c4.3-4.3,8.5-6.5,12.6-6.5C908.1,1800.5,910,1801.1,911.8,1802.1z M910.2,1826.4c1.7-2.3,2.6-5.6,2.6-9.7c0-4.2-0.9-7.5-2.8-9.8
		c-1.9-2.3-4.2-3.5-7.1-3.5c-1.7,0-3.4,0.4-4.9,1.3c-1.5,0.8-3,2-4.6,3.6v16.9c1.4,1.6,2.8,2.7,4.4,3.5c1.6,0.8,3.5,1.2,5.8,1.2
		C906.3,1829.9,908.5,1828.7,910.2,1826.4z"/>
	<path class="st5" d="M957.1,1826.2c0.2,0,0.3,0.1,0.4,0.3c0.1,0.2,0,0.4-0.2,0.5l-8.8,4.1l-0.3,0.1c-0.5,0-1-0.6-1.4-1.7
		c-0.5-1.1-0.7-2.7-0.7-4.5v-0.3c-2,2.2-3.9,3.8-5.9,4.9c-2,1-4,1.5-6.1,1.5c-2.5,0-4.5-0.8-5.9-2.4c-1.4-1.6-2.1-3.9-2.1-6.9v-11.5
		c0-2-0.2-3.4-0.5-4.3c-0.4-0.9-0.9-1.3-1.7-1.3c-0.7,0-1.6,0.2-2.6,0.8h-0.1c-0.2,0-0.4-0.1-0.5-0.4c-0.1-0.3-0.1-0.4,0.2-0.5
		l8.3-3.8l0.3-0.1c0.2,0,0.3,0.1,0.5,0.2c0.2,0.1,0.3,0.3,0.3,0.4v18c0,5.8,2.1,8.7,6.3,8.7c1.6,0,3.2-0.4,4.9-1.2
		c1.7-0.8,3.2-2,4.5-3.4v-13.1c0-2-0.2-3.4-0.5-4.3c-0.3-0.8-0.9-1.3-1.8-1.3c-0.7,0-1.6,0.2-2.6,0.8h-0.1c-0.2,0-0.3-0.1-0.4-0.4
		c-0.1-0.3,0-0.4,0.2-0.5l8.3-3.8l0.2-0.1c0.2,0,0.3,0.1,0.5,0.2c0.2,0.1,0.3,0.3,0.3,0.4v21c0,1.7,0.2,2.9,0.6,3.7
		c0.4,0.8,1.1,1.1,2,1.1c0.8,0,2.2-0.4,4-1.1L957.1,1826.2L957.1,1826.2z"/>
	<path class="st5" d="M980.9,1826.6c0.2,0,0.4,0.1,0.5,0.3c0.1,0.2,0.1,0.4-0.1,0.5c-1.9,1.4-3.5,2.5-5,3.1c-1.5,0.6-3,0.9-4.6,0.9
		c-2.1,0-3.8-0.5-5.2-1.4c-1.4-1-2-2.5-2-4.7v-17.7c0-1.3-0.1-2.2-0.3-2.8c-0.2-0.5-0.5-0.9-1-1.1c-0.5-0.2-1.4-0.3-2.6-0.3
		c-0.2,0-0.3-0.2-0.3-0.5s0.1-0.5,0.3-0.5c2-0.1,3.6-0.6,4.9-1.6c1.3-1,2-2.4,2.2-4.1c0-0.2,0.2-0.2,0.6-0.2c0.4,0,0.5,0.1,0.5,0.2
		v5.6c2.5-0.1,6-0.3,10.5-0.8c0.1,0,0.2,0.2,0.3,0.6c0.1,0.4,0.2,0.8,0.2,1.2c0,0.4-0.1,0.8-0.3,1.2c-0.2,0.4-0.4,0.6-0.6,0.6
		c-2.8-0.7-6.1-1.1-10.1-1.2v18.7c0,2,0.5,3.6,1.5,4.6c1,1,2.5,1.5,4.4,1.5c2.3,0,4.3-0.7,6-2.1L980.9,1826.6z"/>
	<path class="st5" d="M1010.3,1826.3c0.2,0,0.3,0.1,0.4,0.3c0.1,0.2,0.1,0.3,0,0.5c-3.4,2.9-7.1,4.4-11,4.4c-3,0-5.5-0.7-7.7-2
		s-3.8-3.1-4.9-5.3c-1.1-2.2-1.6-4.6-1.6-7.1c0-3,0.7-5.7,2.1-8.2c1.4-2.4,3.4-4.4,5.8-5.8c2.5-1.4,5.2-2.1,8.2-2.1
		c2.7,0,4.8,0.7,6.3,2s2.3,3.1,2.3,5.5c0,0.6-0.1,1-0.2,1.3c-0.1,0.3-0.4,0.4-0.7,0.4l-18.5,0.2c-0.2,1.4-0.4,2.7-0.4,3.9
		c0,4.4,1.1,7.9,3.2,10.6c2.1,2.7,5,4.1,8.7,4.1C1005.4,1828.8,1007.9,1827.9,1010.3,1826.3L1010.3,1826.3L1010.3,1826.3z
		 M994.1,1804.1c-1.4,1.2-2.3,2.8-2.9,5l14-0.3c0-2-0.5-3.6-1.6-4.8c-1.1-1.1-2.5-1.7-4.3-1.7
		C997.2,1802.3,995.5,1802.9,994.1,1804.1z"/>
	<path class="st5" d="M1037.4,1801.7c1,0.6,1.5,1.3,1.5,2.2c0,0.7-0.2,1.2-0.6,1.7c-0.4,0.5-1,0.7-1.8,0.7c-0.5,0-0.8-0.1-1.2-0.3
		c-0.3-0.2-0.7-0.4-1.2-0.8c-0.5-0.4-0.9-0.7-1.3-0.9c-0.4-0.2-0.9-0.3-1.4-0.3c-0.7,0-1.3,0.3-2.1,0.8s-1.9,1.7-3.4,3.5v16.2
		c0,1.5,0.2,2.6,0.6,3.3c0.4,0.7,1.1,1.2,2.1,1.5c1,0.3,2.6,0.4,4.7,0.4c0.2,0,0.3,0.2,0.3,0.5s-0.1,0.5-0.3,0.5
		c-1.6,0-2.9,0-3.8-0.1l-5.6-0.1l-4.1,0.1c-0.7,0.1-1.6,0.1-2.7,0.1c-0.2,0-0.2-0.2-0.2-0.5s0.1-0.5,0.2-0.5c1.4,0,2.4-0.1,3-0.4
		c0.7-0.3,1.1-0.8,1.3-1.5c0.2-0.7,0.3-1.8,0.3-3.3v-14.9c0-1.7-0.2-2.9-0.6-3.7c-0.4-0.8-1.1-1.1-2-1.1c-0.8,0-2.2,0.4-4.1,1.1
		h-0.2c-0.2,0-0.3-0.1-0.4-0.3c-0.1-0.2,0-0.4,0.2-0.5l8.7-4.1c0.1-0.1,0.2-0.1,0.5-0.1c0.5,0,0.9,0.6,1.4,1.7
		c0.5,1.1,0.8,2.6,0.8,4.4v0.1c2-2.4,3.7-4,4.9-4.9s2.4-1.3,3.5-1.3C1035.4,1800.8,1036.4,1801.1,1037.4,1801.7z"/>
	<path class="st5" d="M1097,1783.4c2.5,0.5,4.4,1.1,5.9,2c0.5,0.2,0.7,0.4,0.9,0.6c0.1,0.2,0.2,0.6,0.3,1.2l0.8,8.4
		c0,0.2-0.1,0.2-0.4,0.3c-0.2,0-0.4,0-0.5-0.2c-1.1-3.9-3.1-6.7-6.1-8.5c-3-1.8-6.7-2.7-11.1-2.7c-3.8,0-7.1,0.8-10,2.5
		c-2.9,1.7-5.1,4-6.6,7.1c-1.6,3.1-2.3,6.6-2.3,10.6c0,4.7,1,9,2.9,12.9c1.9,4,4.5,7.1,7.8,9.4c3.3,2.3,6.8,3.5,10.6,3.5
		c3.6,0,6.7-1,9.4-3c2.7-2,4.7-5,6.1-9.1c0-0.2,0.1-0.2,0.3-0.2c0.2,0,0.3,0,0.4,0.1c0.1,0.1,0.2,0.1,0.2,0.2l-1.1,8.5
		c-0.1,0.6-0.2,1-0.3,1.2c-0.1,0.2-0.4,0.4-0.9,0.6c-4.5,1.9-9.3,2.9-14.3,2.9c-6,0-11-1.2-15.1-3.6c-4-2.4-7-5.5-8.9-9.3
		c-1.9-3.8-2.9-7.7-2.9-11.9c0-4.6,1.3-8.7,3.8-12.4c2.6-3.7,5.9-6.5,10.2-8.5c4.2-2,8.7-3,13.5-3
		C1092.2,1782.7,1094.6,1782.9,1097,1783.4z"/>
	<path class="st5" d="M1111.6,1830c0-0.3,0.1-0.5,0.2-0.5c1.4,0,2.4-0.1,3-0.4c0.7-0.3,1.1-0.8,1.4-1.5c0.2-0.7,0.4-1.8,0.4-3.3
		v-38.9c0-1.8-0.2-3.1-0.5-3.9c-0.4-0.8-1-1.2-1.9-1.2c-0.8,0-1.9,0.4-3.5,1.1h-0.2c-0.2,0-0.3-0.1-0.3-0.4c-0.1-0.2,0-0.4,0.1-0.5
		l9.6-4.6c0.1-0.1,0.2-0.1,0.4-0.1c0.1,0,0.2,0.1,0.4,0.2c0.2,0.1,0.3,0.3,0.3,0.4v47.8c0,1.4,0.1,2.5,0.3,3.2
		c0.2,0.7,0.7,1.2,1.3,1.5c0.7,0.3,1.7,0.5,3,0.5c0.2,0,0.2,0.2,0.2,0.5c0,0.3-0.1,0.5-0.2,0.5c-1.1,0-2,0-2.7-0.1l-4.2-0.1
		l-4.1,0.1c-0.7,0.1-1.7,0.1-2.9,0.1C1111.7,1830.5,1111.6,1830.3,1111.6,1830z"/>
	<path class="st5" d="M1164.8,1826.2c0.2,0,0.3,0.1,0.4,0.3c0.1,0.2,0,0.4-0.2,0.5l-8.8,4.1l-0.3,0.1c-0.5,0-1-0.6-1.4-1.7
		c-0.5-1.1-0.7-2.7-0.7-4.5v-0.3c-2,2.2-3.9,3.8-5.9,4.9c-2,1-4,1.5-6.1,1.5c-2.5,0-4.5-0.8-5.9-2.4c-1.4-1.6-2.1-3.9-2.1-6.9v-11.5
		c0-2-0.2-3.4-0.5-4.3c-0.4-0.9-0.9-1.3-1.7-1.3c-0.7,0-1.6,0.2-2.6,0.8h-0.1c-0.2,0-0.4-0.1-0.5-0.4s-0.1-0.4,0.2-0.5l8.3-3.8
		l0.3-0.1c0.2,0,0.3,0.1,0.5,0.2c0.2,0.1,0.3,0.3,0.3,0.4v18c0,5.8,2.1,8.7,6.3,8.7c1.6,0,3.2-0.4,4.9-1.2c1.7-0.8,3.2-2,4.5-3.4
		v-13.1c0-2-0.2-3.4-0.5-4.3s-0.9-1.3-1.8-1.3c-0.7,0-1.6,0.2-2.6,0.8h-0.1c-0.2,0-0.3-0.1-0.4-0.4c-0.1-0.3,0-0.4,0.2-0.5l8.3-3.8
		l0.2-0.1c0.2,0,0.3,0.1,0.5,0.2c0.2,0.1,0.3,0.3,0.3,0.4v21c0,1.7,0.2,2.9,0.6,3.7c0.4,0.8,1.1,1.1,2,1.1c0.8,0,2.2-0.4,4-1.1
		L1164.8,1826.2L1164.8,1826.2z"/>
	<path class="st5" d="M1194.8,1802.1c1.9,1.1,3.3,2.6,4.4,4.7c1.1,2.1,1.7,4.6,1.7,7.6c0,3.6-0.8,6.7-2.4,9.3
		c-1.6,2.6-3.6,4.5-6.2,5.8s-5.2,2-8,2c-3.9,0-7.3-1.1-10.2-3.3l-5.7,2.7h-0.2c-0.2,0-0.3-0.1-0.4-0.3c-0.1-0.2,0-0.4,0.2-0.5
		c1.6-1.1,2.7-2.1,3.4-3.1c0.7-1,1-2.4,1-4.3v-37.1c0-1.8-0.2-3.1-0.6-3.9s-1-1.2-1.9-1.2c-0.7,0-1.8,0.3-3.4,1h-0.2
		c-0.2,0-0.3-0.1-0.3-0.4c-0.1-0.2,0-0.4,0.1-0.5l9.4-4.6l0.4-0.1c0.1,0,0.2,0.1,0.4,0.2c0.2,0.1,0.3,0.3,0.3,0.4v30.4
		c1.9-2,3.8-3.6,5.7-4.8c1.9-1.2,4.1-1.8,6.5-1.8C1190.9,1800.5,1192.9,1801,1194.8,1802.1z M1193.4,1826.6c1.6-2.3,2.4-5.5,2.4-9.7
		c0-4.5-0.9-8-2.6-10.4c-1.7-2.4-4.1-3.6-7-3.6c-1.7,0-3.3,0.5-4.9,1.4c-1.6,0.9-3.2,2.2-4.8,3.9v12.3c0,2.2,0.5,4,1.6,5.4
		c1.1,1.4,2.4,2.4,3.9,3.1c1.6,0.6,3.1,1,4.5,1C1189.5,1830,1191.8,1828.9,1193.4,1826.6z"/>
</g>
</svg>
